<?xml version="1.0" standalone="no"?>
<!DOCTYPE svg PUBLIC "-//W3C//DTD SVG 20010904//EN"
 "http://www.w3.org/TR/2001/REC-SVG-20010904/DTD/svg10.dtd">
<svg version="1.0" xmlns="http://www.w3.org/2000/svg"
 width="700.000000pt" height="700.000000pt" viewBox="0 0 700.000000 700.000000"
 preserveAspectRatio="xMidYMid meet">
<metadata>
Created by potrace 1.14, written by Peter Selinger 2001-2017
</metadata>
<g transform="translate(0.000000,700.000000) scale(0.100000,-0.100000)"
fill="#000000" stroke="none">
<path d="M3833 4590 c-15 -6 -27 -25 -38 -63 -10 -34 -36 -80 -69 -123 -29
-38 -62 -89 -73 -114 -11 -25 -45 -81 -74 -125 -30 -44 -60 -96 -68 -115 -26
-71 -65 -148 -136 -270 -41 -69 -79 -137 -86 -152 -7 -16 -16 -28 -21 -28 -4
0 -8 -10 -8 -21 0 -12 -40 -103 -89 -203 -49 -99 -111 -228 -139 -286 -27 -58
-58 -113 -70 -123 -11 -10 -30 -46 -43 -80 -12 -34 -28 -69 -35 -77 -10 -12
-10 -23 1 -53 7 -21 15 -39 17 -40 32 -17 44 -29 60 -57 23 -44 54 -57 68 -30
6 11 15 20 21 20 6 0 8 -4 5 -8 -3 -5 12 -19 34 -31 l38 -21 56 77 c31 43 56
85 56 93 0 21 29 61 30 41 0 -22 15 -2 35 49 25 63 30 111 13 121 -8 5 -3 8
17 6 45 -3 46 32 2 70 l-34 30 24 44 c35 62 43 68 44 34 1 -17 1 -35 0 -41 -1
-7 5 -14 13 -17 9 -4 16 3 19 19 3 15 0 24 -8 24 -8 0 -11 8 -8 20 7 28 21 25
29 -5 l6 -26 22 23 c17 18 20 31 16 58 -7 39 7 83 24 77 6 -2 17 5 24 17 12
20 13 20 7 -6 -8 -39 13 -35 30 5 18 44 22 74 10 74 -5 1 -9 -3 -8 -8 2 -5 -2
-9 -8 -9 -7 0 -9 9 -5 23 4 12 10 41 13 65 5 34 8 40 19 31 13 -10 18 -6 15
13 0 4 6 5 14 2 9 -4 15 0 16 7 0 8 2 22 4 31 2 10 -4 23 -13 29 -13 7 -13 9
-2 6 11 -3 30 27 68 101 28 57 52 111 52 119 0 7 7 16 16 20 11 4 14 14 10 34
-4 21 0 31 19 43 14 9 25 25 25 36 0 10 9 21 19 25 11 3 22 19 26 36 4 16 19
44 33 61 71 83 177 242 219 326 41 85 44 96 32 118 -7 13 -24 27 -38 30 -74
17 -156 46 -178 64 -28 22 -37 23 -70 10z m-523 -1580 c0 -5 -4 -12 -10 -15
-5 -3 -10 -4 -10 -1 0 2 -3 12 -6 20 -5 12 -2 15 10 10 9 -3 16 -10 16 -14z"/>
<path d="M2289 4290 c-50 -47 -135 -112 -209 -159 -69 -44 -138 -92 -155 -107
-16 -14 -66 -51 -110 -82 -44 -31 -112 -87 -151 -124 -78 -75 -136 -112 -163
-103 -14 4 -51 -27 -145 -120 -70 -69 -131 -136 -136 -149 -9 -26 -3 -85 11
-102 5 -6 5 -14 1 -18 -13 -13 -8 -29 16 -53 16 -16 21 -30 17 -44 -4 -12 -1
-27 8 -37 9 -9 16 -21 16 -27 0 -5 20 -15 45 -22 25 -8 76 -37 113 -65 84 -63
168 -109 253 -138 36 -12 157 -67 270 -122 238 -116 287 -136 435 -179 94 -27
145 -35 190 -30 6 1 10 49 10 124 0 109 -2 125 -21 149 -40 51 -85 80 -197
127 -61 27 -137 59 -167 73 -30 13 -102 44 -160 68 -180 75 -425 213 -452 254
-8 12 29 45 50 46 17 0 15 17 -5 28 -14 8 -7 19 47 68 35 33 91 85 125 117 33
31 98 81 145 109 114 69 323 211 385 261 78 63 175 159 191 189 8 15 12 37 10
50 -3 13 -5 29 -5 35 -2 23 -48 44 -104 47 -30 2 -59 6 -65 10 -5 3 -48 -30
-93 -74z"/>
<path d="M4458 4333 c-39 -48 -48 -72 -41 -118 7 -57 32 -89 86 -115 23 -10
62 -33 87 -50 25 -16 57 -30 71 -30 25 0 66 -19 161 -74 26 -15 82 -40 125
-56 293 -107 423 -163 423 -183 0 -19 -183 -234 -222 -261 -24 -16 -56 -45
-72 -64 -28 -33 -207 -193 -310 -277 -27 -22 -62 -52 -78 -67 -16 -16 -35 -28
-42 -28 -8 0 -19 -7 -26 -15 -10 -13 -10 -19 4 -34 14 -15 15 -24 6 -40 -12
-24 -21 -26 -37 -10 -8 8 -17 8 -31 0 -11 -6 -29 -11 -40 -11 -22 0 -68 -75
-64 -105 5 -35 94 -155 114 -155 10 0 21 -8 24 -17 14 -44 17 -46 150 -83 7
-1 24 61 19 69 -8 14 64 82 160 152 41 30 75 59 75 65 0 18 35 44 58 44 12 0
26 10 33 23 7 12 18 26 25 30 8 4 14 15 14 22 0 8 4 15 9 15 5 0 14 13 21 30
9 22 21 31 49 37 20 4 39 6 43 5 4 -1 14 10 22 26 19 36 153 163 178 167 36 7
101 69 168 159 71 97 124 150 162 161 31 10 38 23 38 70 0 65 -18 110 -64 162
-55 61 -99 85 -310 168 -93 37 -228 93 -300 124 -72 32 -149 64 -171 71 -22 7
-79 32 -127 56 -48 24 -93 44 -99 44 -6 0 -24 11 -41 25 -16 14 -38 25 -49 25
-11 0 -49 14 -86 30 -76 35 -94 37 -115 13z"/>
<path d="M3570 3399 c0 -5 5 -7 10 -4 6 3 10 8 10 11 0 2 -4 4 -10 4 -5 0 -10
-5 -10 -11z"/>
<path d="M3386 3065 c-3 -8 -1 -15 4 -15 6 0 10 7 10 15 0 8 -2 15 -4 15 -2 0
-6 -7 -10 -15z"/>
</g>
</svg>
